<?xml version="1.0" encoding="UTF-8"?>
<svg version="1.1" xmlns="http://www.w3.org/2000/svg" width="200" height="200">
<path d="M0 0 C1.74796875 0.54333984 1.74796875 0.54333984 3.53125 1.09765625 C14.53494439 4.96204892 24.1759758 11.23711244 33.1953125 18.5546875 C35.14841445 20.16188848 35.14841445 20.16188848 38 22 C38 22.66 38 23.32 38 24 C38.66 24 39.32 24 40 24 C45.52427119 29.218177 49.81342538 35.70556762 54 42 C54.75603516 43.06734375 54.75603516 43.06734375 55.52734375 44.15625 C59.23028367 49.73521518 61.52148974 55.66169011 63.75 61.9375 C64.04390625 62.75976074 64.3378125 63.58202148 64.640625 64.42919922 C71.43905381 84.35630682 71.2497223 106.95158926 65 127 C64.63777344 128.1653125 64.27554688 129.330625 63.90234375 130.53125 C60.03795108 141.53494439 53.76288756 151.1759758 46.4453125 160.1953125 C44.83811152 162.14841445 44.83811152 162.14841445 43 165 C42.34 165 41.68 165 41 165 C40.67 165.99 40.34 166.98 40 168 C39.34 168 38.68 168 38 168 C38 168.66 38 169.32 38 170 C27.53858988 179.22966345 16.07700376 186.13680204 2.9375 190.8125 C2.12273193 191.10278076 1.30796387 191.39306152 0.46850586 191.69213867 C-19.43221842 198.43716863 -41.99250334 198.23696809 -62 192 C-63.1653125 191.63777344 -64.330625 191.27554688 -65.53125 190.90234375 C-77.28324596 186.77515469 -87.43989748 179.87076714 -97 172 C-97.62132812 171.51273438 -98.24265625 171.02546875 -98.8828125 170.5234375 C-100.2965305 169.39903853 -101.65564386 168.20647346 -103 167 C-103 166.34 -103 165.68 -103 165 C-103.66 165 -104.32 165 -105 165 C-114.22966345 154.53858988 -121.13680204 143.07700376 -125.8125 129.9375 C-126.10278076 129.12273193 -126.39306152 128.30796387 -126.69213867 127.46850586 C-133.43716863 107.56778158 -133.23696809 85.00749666 -127 65 C-126.63777344 63.8346875 -126.27554688 62.669375 -125.90234375 61.46875 C-121.08306937 47.74607041 -112.55331009 34.99787272 -102 25 C-101.278125 24.236875 -100.55625 23.47375 -99.8125 22.6875 C-89.45589522 12.79118876 -78.3715833 5.95753683 -64.9375 1.1875 C-64.12297363 0.89738037 -63.30844727 0.60726074 -62.46923828 0.30834961 C-42.56931672 -6.43836445 -20.00695677 -6.23679979 0 0 Z " fill="#0051FA" transform="translate(131,4)"/>
<path d="M0 0 C4.7491676 3.68562162 4.7491676 3.68562162 6.8984375 5.83984375 C6.8984375 6.49984375 6.8984375 7.15984375 6.8984375 7.83984375 C7.5584375 7.83984375 8.2184375 7.83984375 8.8984375 7.83984375 C23.64997454 24.47957753 28.92857436 43.00741434 27.8984375 64.83984375 C27.53143655 68.29615648 26.85960854 71.5030511 25.8984375 74.83984375 C25.49625 76.28423828 25.49625 76.28423828 25.0859375 77.7578125 C21.89873659 88.23573548 16.42011012 97.81414152 8.8984375 105.83984375 C8.2384375 105.83984375 7.5784375 105.83984375 6.8984375 105.83984375 C6.8984375 106.49984375 6.8984375 107.15984375 6.8984375 107.83984375 C-10.27972411 123.06871042 -28.99640447 127.77771803 -51.44189453 127.01025391 C-68.41281641 125.92289357 -83.79231625 115.98187692 -95.1015625 103.83984375 C-101.32405322 96.58553562 -105.53766966 88.68147599 -109.1015625 79.83984375 C-109.46507812 78.94910156 -109.82859375 78.05835937 -110.203125 77.140625 C-111.46606668 72.50068709 -111.66619902 67.62884199 -112.1015625 62.83984375 C-77.7815625 62.83984375 -43.4615625 62.83984375 -8.1015625 62.83984375 C-8.1015625 58.87984375 -8.1015625 54.91984375 -8.1015625 50.83984375 C-42.4215625 50.83984375 -76.7415625 50.83984375 -112.1015625 50.83984375 C-112.1015625 34.82055585 -104.57777021 20.63071282 -94.1015625 8.83984375 C-93.54726562 8.20304687 -92.99296875 7.56625 -92.421875 6.91015625 C-87.69031817 1.81637497 -82.07755916 -1.67561009 -76.1015625 -5.16015625 C-75.44414063 -5.55203125 -74.78671875 -5.94390625 -74.109375 -6.34765625 C-50.64158376 -19.23983341 -21.36806565 -14.88229257 0 0 Z " fill="#FDFEFF" transform="translate(142.1015625,43.16015625)"/>
</svg>
