<?xml version="1.0" encoding="UTF-8"?>
<svg width="256px" height="240px" viewBox="0 0 256 240" version="1.1" xmlns="http://www.w3.org/2000/svg" xmlns:xlink="http://www.w3.org/1999/xlink" preserveAspectRatio="xMidYMid">
    <title>MetaMask</title>
    <g>
        <polygon fill="#E17726" points="250.066 -8.82114786e-15 147.076 76.4768627 165.877 35.1032893"></polygon>
        <polygon fill="#E27625" points="5.87322316 -8.82114786e-15 108.351 76.9209188 89.8416533 35.1032893"></polygon>
        <polygon fill="#E27625" points="214.686 170.584549 189.423 206.956606 245.903 221.143196 261.866 171.398335"></polygon>
        <polygon fill="#E27625" points="0 171.398335 15.8753055 221.143196 72.2759051 206.956606 47.1059961 170.584549"></polygon>
        <polygon fill="#E27625" points="70.8567757 107.468344 54.1078331 129.897138 110.024 132.235552 108.351 71.9218743"></polygon>
        <polygon fill="#E27625" points="185.143 107.468344 146.976 71.4778181 146.076 132.235552 201.892 129.897138"></polygon>
        <polygon fill="#E27625" points="72.2759051 206.956606 106.851 192.012952 77.0108681 171.84177"></polygon>
        <polygon fill="#E27625" points="149.149 192.012952 183.724 206.956606 178.9 171.84177"></polygon>
        <polygon fill="#D5BFB2" points="183.724 206.956606 149.149 192.012952 151.889 211.467135 151.533 220.699224"></polygon>
        <polygon fill="#D5BFB2" points="72.2759051 206.956606 104.467 220.699224 104.223 211.467135 106.851 192.012952"></polygon>
        <polygon fill="#233447" points="104.984 158.320264 76.7760217 150.795362 96.5951829 142.352802"></polygon>
        <polygon fill="#233447" points="151.016 158.320264 159.405 142.352802 179.336 150.795362"></polygon>
        <polygon fill="#CC6228" points="72.2759051 206.956606 77.3997208 170.584549 47.1059961 171.398335"></polygon>
        <polygon fill="#CC6228" points="178.6 170.584549 183.724 206.956606 208.894 171.398335"></polygon>
        <polygon fill="#CC6228" points="201.892 129.897138 146.076 132.235552 151.016 158.320264 159.405 142.352802 179.336 150.795362"></polygon>
        <polygon fill="#CC6228" points="76.7760217 150.795362 96.5951829 142.352802 104.984 158.320264 110.024 132.235552 54.1078331 129.897138"></polygon>
        <polygon fill="#E27525" points="54.1078331 129.897138 77.0108681 171.84177 76.7760217 150.795362"></polygon>
        <polygon fill="#E27525" points="179.336 150.795362 178.9 171.84177 201.892 129.897138"></polygon>
        <polygon fill="#E27525" points="110.024 132.235552 104.984 158.320264 112.139 189.673599 113.47 149.316893"></polygon>
        <polygon fill="#E27525" points="146.076 132.235552 142.54 149.227245 143.759 189.673599 151.016 158.320264"></polygon>
        <polygon fill="#F5841F" points="151.016 158.320264 143.759 189.673599 149.149 192.012952 178.9 171.84177 179.336 150.795362"></polygon>
        <polygon fill="#F5841F" points="76.7760217 150.795362 77.0108681 171.84177 106.851 192.012952 112.139 189.673599 104.984 158.320264"></polygon>
        <polygon fill="#C0AC9D" points="149.773 220.6104 150.129 211.378311 148.067 209.629463 107.933 209.629463 105.982 211.378311 106.227 220.6104 72.2759051 206.956606 81.7973074 214.631398 107.6 231.955211 148.4 231.955211 174.314 214.631398 183.724 206.956606"></polygon>
        <polygon fill="#161616" points="149.149 192.012952 143.759 189.673599 112.139 189.673599 106.851 192.012952 104.223 211.467135 105.982 209.629463 107.933 209.629463 148.067 209.629463 150.129 211.467135"></polygon>
        <polygon fill="#763E1A" points="251.966 81.1700816 256 44.4557078 250.066 -8.82114786e-15 149.149 73.9158879 185.143 107.468344 244.614 121.563252 255.925 109.10754 250.778 105.359 258.455 97.7933924 252.245 93.0630361 259.923 86.7803193"></polygon>
        <polygon fill="#763E1A" points="0 44.4557078 4.13348432 81.1700816 -0.887249294 86.7803193 6.7896461 93.0630361 0.579884653 97.7933924 8.25718834 105.359 3.11035961 109.10754 14.4210738 121.563252 73.8925392 107.468344 109.886 73.9158879 8.9695909 -8.82114786e-15"></polygon>
        <polygon fill="#F5841F" points="244.614 121.563252 185.143 107.468344 201.892 129.897138 178.9 171.84177 208.894 171.398335 261.866 171.398335"></polygon>
        <polygon fill="#F5841F" points="73.8925392 107.468344 14.4210738 121.563252 0 171.398335 47.1059961 171.398335 77.0108681 171.84177 54.1078331 129.897138"></polygon>
        <polygon fill="#F5841F" points="146.076 132.235552 149.149 73.9158879 165.877 35.1032893 89.8416533 35.1032893 106.851 73.9158879 110.024 132.235552 112.139 149.406541 112.139 189.673599 143.759 189.673599 143.869 149.406541"></polygon>
    </g>
</svg>